Coordinates
version=1
nRows=25
nColumns=34
inDegrees=no

Units are S.I. units (second, meters, Newtons, ...)
If the header above contains a line with 'inDegrees', this indicates whether rotational values are in degrees (yes) or radians (no).

endheader
time	pelvis_tilt	pelvis_list	pelvis_rotation	pelvis_tx	pelvis_ty	pelvis_tz	hip_flexion_r	hip_adduction_r	hip_rotation_r	knee_angle_r	ankle_angle_r	subtalar_angle_r	mtp_angle_r	hip_flexion_l	hip_adduction_l	hip_rotation_l	knee_angle_l	ankle_angle_l	subtalar_angle_l	mtp_angle_l	lumbar_extension	lumbar_bending	lumbar_rotation	arm_flex_r	arm_add_r	arm_rot_r	elbow_flex_r	pro_sup_r	arm_flex_l	arm_add_l	arm_rot_l	elbow_flex_l	pro_sup_l
1.24	-0.356858	-0.0966701	0.0532892	-0.369921	0.876014	-0.633515	1.14057	-0.126209	-0.134866	1.05648	0.259813	-0.130342	-0.129736	1.16984	-0.280374	-0.208656	1.08398	0.340061	-0.0476005	-0.129736	-0.470205	0.117081	0.0468505	-0.984933	-0.203505	-0.0114968	1.00341	2.07456	-0.955986	-0.28759	0.0286612	1.30295	1.94405
1.25	-0.388564	-0.104981	0.0600462	-0.370598	0.849718	-0.632659	1.22294	-0.141145	-0.130289	1.14326	0.273203	-0.218627	-0.129736	1.26882	-0.285495	-0.118871	1.18846	0.348601	-0.00122169	-0.129736	-0.472551	0.123295	0.0414148	-0.94306	-0.199744	0.0227446	0.971052	2.07416	-0.907447	-0.280219	0.0495787	1.26825	1.94849
1.26	-0.41158	-0.107526	0.0604207	-0.371584	0.828577	-0.631588	1.29528	-0.149313	-0.106025	1.22145	0.25661	-0.298944	-0.129736	1.34364	-0.287756	-0.0758583	1.2631	0.338894	-0.0759791	-0.129736	-0.493964	0.121164	0.0415459	-0.887709	-0.197472	0.0582509	0.939392	2.07216	-0.844079	-0.275189	0.0693579	1.23034	1.96748
1.27	-0.434099	-0.110735	0.062077	-0.373247	0.809333	-0.631626	1.36036	-0.161494	-0.0832873	1.28611	0.241995	-0.352481	-0.129736	1.4043	-0.281383	-0.0383505	1.31542	0.342842	-0.136527	-0.129736	-0.519069	0.122126	0.0425869	-0.831533	-0.198991	0.0941787	0.921207	2.04064	-0.774599	-0.27197	0.0913645	1.19684	1.984
1.28	-0.461352	-0.117345	0.0603589	-0.37533	0.790429	-0.632794	1.42108	-0.173408	-0.0717405	1.33598	0.239906	-0.391843	-0.129736	1.46666	-0.272998	-0.00271033	1.36076	0.34539	-0.203318	-0.129736	-0.538188	0.128295	0.0494213	-0.780855	-0.206419	0.121791	0.913083	2.04583	-0.702291	-0.269669	0.121402	1.1682	1.98084
1.29	-0.486833	-0.120521	0.0537557	-0.376476	0.772668	-0.633696	1.47302	-0.181376	-0.0643257	1.37677	0.24609	-0.432827	-0.129736	1.52251	-0.268917	0.0239246	1.40333	0.343516	-0.274772	-0.129736	-0.556999	0.129162	0.0586574	-0.731043	-0.217846	0.149995	0.912633	2.04111	-0.62886	-0.271147	0.156664	1.14255	1.96776
1.3	-0.504757	-0.116634	0.0439046	-0.375989	0.757607	-0.633157	1.51274	-0.182849	-0.0525941	1.412	0.253644	-0.476259	-0.129736	1.56237	-0.272726	0.0400423	1.44165	0.344413	-0.332517	-0.129736	-0.583109	0.118971	0.0659022	-0.675159	-0.229586	0.18261	0.914543	2.0143	-0.552784	-0.279657	0.195628	1.1224	1.93081
1.31	-0.518398	-0.109786	0.0338779	-0.37449	0.745281	-0.631736	1.54481	-0.180672	-0.0367909	1.44275	0.259314	-0.513592	-0.129736	1.59146	-0.28058	0.0524486	1.47468	0.349341	-0.371693	-0.129736	-0.613693	0.103906	0.0702631	-0.613484	-0.241501	0.214901	0.914888	2.00707	-0.472786	-0.293505	0.23299	1.10276	1.91041
1.32	-0.535843	-0.105765	0.0284761	-0.373284	0.734354	-0.631216	1.57846	-0.183379	-0.0219963	1.47002	0.26409	-0.53753	-0.129736	1.62325	-0.281662	0.0687956	1.50273	0.352037	-0.403241	-0.129736	-0.639003	0.0950897	0.0727666	-0.552109	-0.256274	0.246506	0.919104	2.00728	-0.387606	-0.308956	0.27209	1.08101	1.90971
1.33	-0.562098	-0.106055	0.029908	-0.373221	0.723458	-0.632361	1.62023	-0.195564	-0.010597	1.4948	0.266666	-0.552856	-0.129736	1.66574	-0.270173	0.0898616	1.52653	0.347225	-0.437812	-0.129736	-0.651573	0.0965362	0.0738711	-0.494709	-0.275083	0.275274	0.924834	2.05689	-0.297386	-0.323239	0.31768	1.05621	1.91281
1.34	-0.593661	-0.109369	0.0319962	-0.373848	0.71245	-0.633886	1.66651	-0.208851	-0.00271614	1.51677	0.265631	-0.569113	-0.129736	1.7146	-0.256117	0.111852	1.5477	0.338119	-0.473929	-0.129736	-0.65394	0.101982	0.0762017	-0.438146	-0.297422	0.310235	0.934136	2.08506	-0.2061	-0.335697	0.362302	1.02864	1.92582
1.35	-0.621232	-0.11386	0.0281193	-0.373935	0.702371	-0.63451	1.70623	-0.213781	0.00167567	1.53549	0.262838	-0.588789	-0.129736	1.75804	-0.25144	0.132235	1.56789	0.331378	-0.50621	-0.129736	-0.656564	0.104427	0.0819018	-0.376163	-0.321464	0.349104	0.939263	2.09	-0.118212	-0.347989	0.395145	1.00603	1.92756
1.36	-0.638134	-0.117446	0.0211622	-0.372789	0.694184	-0.634658	1.73217	-0.213674	0.00501178	1.55246	0.261607	-0.607159	-0.129736	1.7871	-0.253519	0.149724	1.58697	0.329592	-0.533746	-0.129736	-0.66689	0.103466	0.0869522	-0.30487	-0.345943	0.388387	0.935161	2.09	-0.0335079	-0.361219	0.41491	0.992399	1.89058
1.37	-0.643459	-0.119691	0.0163001	-0.370567	0.68807	-0.635019	1.7441	-0.214755	0.00978016	1.56919	0.266617	-0.610865	-0.129736	1.80073	-0.255289	0.164833	1.60455	0.331593	-0.557283	-0.129736	-0.685343	0.101558	0.0874389	-0.224034	-0.368925	0.426527	0.920737	2.09	0.051766	-0.37385	0.423971	0.974343	1.86588
1.38	-0.639475	-0.122519	0.01218	-0.367675	0.683715	-0.635125	1.74441	-0.214679	0.0138208	1.58509	0.273665	-0.610865	-0.129736	1.80352	-0.258218	0.181127	1.62153	0.335855	-0.576162	-0.129736	-0.708992	0.099205	0.0860151	-0.135586	-0.387448	0.462242	0.89763	2.09	0.139511	-0.385496	0.42979	0.946421	1.85552
1.39	-0.629852	-0.127923	0.00695145	-0.364523	0.680573	-0.634579	1.7368	-0.211021	0.014383	1.5993	0.280662	-0.610865	-0.129736	1.8012	-0.264378	0.201192	1.6384	0.340724	-0.590717	-0.129736	-0.733391	0.0973904	0.0848109	-0.0420948	-0.39935	0.492219	0.867786	2.09	0.226499	-0.396826	0.429502	0.912056	1.85017
1.4	-0.617768	-0.13536	0.00359386	-0.361437	0.678134	-0.633995	1.72535	-0.207958	0.0128225	1.61229	0.287155	-0.610865	-0.129736	1.79675	-0.269656	0.222996	1.65423	0.346467	-0.60053	-0.129736	-0.754605	0.0988569	0.083047	0.0512052	-0.404393	0.508913	0.835053	2.09	0.31171	-0.407472	0.421124	0.874796	1.83971
1.41	-0.602812	-0.14177	0.00505922	-0.358323	0.676601	-0.634066	1.71009	-0.20925	0.0127119	1.62422	0.294054	-0.610865	-0.129736	1.78729	-0.270957	0.240651	1.66771	0.352222	-0.60734	-0.129736	-0.773725	0.103422	0.0776219	0.142747	-0.403902	0.512082	0.801665	2.09	0.395629	-0.416077	0.401374	0.837667	1.81943
1.42	-0.582423	-0.145678	0.00790836	-0.354767	0.676704	-0.634357	1.6874	-0.20999	0.0139862	1.63345	0.302421	-0.610865	-0.129736	1.76847	-0.273806	0.251369	1.67847	0.35975	-0.610227	-0.129736	-0.795325	0.106424	0.0714201	0.231892	-0.39857	0.50103	0.769055	2.09	0.479212	-0.422092	0.368617	0.808575	1.77427
1.43	-0.558052	-0.149344	0.00533934	-0.350636	0.678397	-0.633766	1.65793	-0.2015	0.0131128	1.63854	0.311089	-0.610865	-0.129736	1.74319	-0.286216	0.259276	1.68748	0.369859	-0.608317	-0.129736	-0.818611	0.10395	0.0704606	0.316659	-0.388938	0.4729	0.740236	2.09	0.55904	-0.425658	0.316724	0.795596	1.72642
1.44	-0.532936	-0.153781	-0.00345496	-0.346354	0.680936	-0.63201	1.62666	-0.183149	0.0106575	1.64083	0.317478	-0.610865	-0.129736	1.71666	-0.307311	0.268111	1.69548	0.379859	-0.603364	-0.129736	-0.839392	0.0952202	0.0722494	0.396008	-0.374631	0.427074	0.721795	2.09	0.640968	-0.426911	0.260629	0.751773	1.80015
1.45	-0.516231	-0.161014	-0.0152038	-0.341962	0.68354	-0.63021	1.60205	-0.161477	0.00476166	1.64006	0.320679	-0.610865	-0.129736	1.69853	-0.328559	0.281135	1.70155	0.390938	-0.594162	-0.129736	-0.845358	0.0899652	0.085964	0.457519	-0.364952	0.350828	0.729198	2.09	0.700863	-0.419197	0.181665	0.835257	1.62155
1.46	-0.49531	-0.164842	-0.0215086	-0.338236	0.686798	-0.629029	1.57487	-0.144836	0.00407559	1.6399	0.323835	-0.610865	-0.129736	1.67401	-0.341827	0.290754	1.70517	0.400039	-0.58763	-0.129736	-0.853649	0.0828803	0.0843032	0.524363	-0.351177	0.282146	0.758647	2.04446	0.789017	-0.417647	0.123979	0.87722	1.8184
1.47	-0.486288	-0.167149	-0.0241272	-0.334315	0.689717	-0.62885	1.5581	-0.134277	0.00402747	1.63739	0.329739	-0.610865	-0.129736	1.65846	-0.345527	0.296201	1.70475	0.404237	-0.588101	-0.129736	-0.840807	0.082927	0.0924104	0.563126	-0.355536	0.220607	0.823725	2.09	0.844203	-0.403579	0.121795	0.860661	1.81984
1.48	-0.477227	-0.168168	-0.021698	-0.331002	0.692314	-0.629361	1.54242	-0.129427	0.00597545	1.63574	0.338106	-0.610865	-0.129736	1.64284	-0.342401	0.298879	1.70337	0.409532	-0.587482	-0.129736	-0.824797	0.0857526	0.0964177	0.608053	-0.368166	0.145281	1.02215	1.24717	0.904128	-0.39866	0.11814	1.03486	1.36955
